<svg id="Layer_1" enable-background="new 0 0 512.003 512.003" height="512" viewBox="0 0 512.003 512.003" width="512" xmlns="http://www.w3.org/2000/svg"><path d="m395.024 390.008h-278.045c-30.486 75.718-7.277 113.995-7.277 113.995h292.599s23.209-38.277-7.277-113.995z" fill="#8bc4ff"/><path d="m399.507 82.502c-4.587-16.691-9.239-40.003-10.192-67.991 0 0-49.969-10.596-82.342-4.746 0 0-15.897 46.799-50.972 47.774-35.074-.976-50.971-47.775-50.971-47.775-32.374-5.85-82.343 4.746-82.343 4.746-.952 27.989-5.604 51.301-10.192 67.991-16.277 59.223 30.554 131.415 139.765 82.597 2.377-1.063 5.105-1.063 7.482 0 52.175 23.323 86.702 18.533 109.291 4.716 27.267-16.676 39.751-53.561 30.474-87.312z" fill="#8bc4ff"/><g fill="#2e58ff"><path d="m492.935 180.944c-4.36-50.132-11.949-95.922-20.299-122.488-11.06-35.189-52.564-44.36-75.818-46.712-.931-2.524-3.099-4.478-5.843-5.06-2.104-.446-51.89-10.855-85.425-4.792-2.853.516-5.207 2.545-6.148 5.287-.142.415-14.519 41.345-43.4 42.355-28.882-1.011-43.259-41.94-43.396-42.344-.936-2.753-3.291-4.782-6.152-5.299-33.536-6.064-83.322 4.346-85.425 4.792-2.744.582-4.912 2.536-5.843 5.06-23.254 2.352-64.759 11.522-75.818 46.712-8.35 26.566-15.938 72.356-20.299 122.488-4.062 46.703-7.341 121.001.11 209.733.351 4.176 3.848 7.332 7.963 7.331 4.709 0 8.371-4.019 7.98-8.669-10.717-127.617.105-264.342 19.508-326.085 7.95-25.293 40.723-32.942 59.271-35.248-3.931 48.958-15.887 58.22-11.563 89.787-9.83 31.772-39.491 136.434-46.68 262.419-.251 4.411 3.12 8.191 7.531 8.443 4.421.238 8.191-3.12 8.443-7.531 5.834-102.261 26.673-190.212 39.257-235.56 5.991 11.994 14.678 22.295 25.6 29.588 15.237 67.44 9.902 137.71-14.122 184.083-47.947 92.551-23.07 142.563-19.803 148.4 1.658 2.948 4.349 4.367 7.138 4.367h292.599c2.772 0 5.459-1.38 7.139-4.367 3.267-5.837 28.144-55.85-19.803-148.4-25.928-50.05-33.345-118.974-19.621-180.746 13.886-7.688 24.145-19.004 31.099-32.925 12.584 45.347 33.422 133.299 39.257 235.559.253 4.411 4.019 7.78 8.443 7.531 4.411-.252 7.782-4.032 7.531-8.443-7.188-125.984-36.85-230.646-46.68-262.418 4.371-31.895-7.521-39.449-11.563-89.788 18.548 2.306 51.32 9.955 59.271 35.248 6.192 19.704 14.6 61.334 19.623 119.078 4.008 46.081 7.242 119.401-.114 207.009-.391 4.655 3.276 8.669 7.98 8.669 4.115 0 7.612-3.155 7.963-7.331 7.45-88.732 4.172-163.03.109-209.733zm-145.595 66.426c-3.443-.618-8.673-1.715-14.816-3.534-4.244-1.26-8.688 1.166-9.941 5.4-1.254 4.236 1.164 8.688 5.4 9.941 9.338 2.764 16.785 4.042 20.096 4.528 4.722 65.768 26.32 99.474 34.818 118.302h-11.14c-4.418 0-8 3.582-8 8s3.582 8 8 8h17.784c11.473 30.345 18.852 69.262 7.653 97.995h-133.193v-32.857c0-4.418-3.582-8-8-8s-8 3.582-8 8v32.857h-133.208c-11.558-29.243-3.406-68.672 7.687-97.995h189.245c4.418 0 8-3.582 8-8s-3.582-8-8-8h-182.614c8.755-19.434 29.51-50.797 31.809-119.172 3.839-.734 9.025-1.89 15-3.658 4.236-1.254 6.654-5.705 5.4-9.941-1.253-4.236-5.698-6.656-9.941-5.4-3.875 1.147-7.378 2.003-10.309 2.638-.303-20.577-2.438-41.597-6.346-62.255 44.43 15.671 101.855-11.829 101.755-11.815 29.881 13.342 64.387 22.39 95.717 13.436-3.68 20.188-5.263 40.96-4.856 61.53zm17.52-84.379c-30.486 18.644-69.369 9.332-101.853-5.196-4.453-1.99-9.559-1.99-14.012 0-32.521 14.537-71.348 23.854-101.853 5.196-23.386-14.304-34.074-45.215-27.985-74 1.689-7.908 9.205-30.283 11.241-67.811 13.159-2.362 45.084-7.268 68.849-4.213 27.851 66.286 87.007 63.067 113.506 0 23.738-3.046 55.683 1.855 68.849 4.215 3.126 57.606 16.746 65.883 11.98 95.995-2.975 18.692-12.687 36.006-28.722 45.814z"/><path d="m240.868 194.142c-4.07-1.726-8.764.178-10.486 4.246-2.39 5.643-5.654 10.964-9.702 15.815-2.831 3.393-2.375 8.438 1.018 11.268 3.393 2.831 8.438 2.375 11.268-1.018 5.058-6.062 9.146-12.731 12.149-19.825 1.722-4.068-.179-8.764-4.247-10.486z"/><path d="m206.748 227.064c-4.992 3.616-10.652 6.912-16.822 9.794-4.003 1.869-5.732 6.631-3.862 10.634 1.873 4.01 6.638 5.73 10.634 3.862 7.087-3.31 13.626-7.123 19.438-11.333 3.578-2.592 4.377-7.594 1.785-11.172-2.592-3.577-7.592-4.376-11.173-1.785z"/><path d="m283.221 214.203c-4.048-4.852-7.313-10.173-9.703-15.816-1.724-4.067-6.417-5.971-10.487-4.245-4.068 1.724-5.969 6.419-4.245 10.487 3.006 7.094 7.094 13.764 12.15 19.824 2.831 3.393 7.875 3.847 11.268 1.018 3.392-2.83 3.848-7.875 1.017-11.268z"/><path d="m313.975 236.858c-6.17-2.882-11.83-6.178-16.822-9.794-3.577-2.592-8.58-1.794-11.172 1.785-2.592 3.578-1.793 8.58 1.785 11.172 5.812 4.21 12.351 8.023 19.438 11.333 3.994 1.867 8.76.149 10.634-3.862 1.87-4.003.14-8.764-3.863-10.634z"/><path d="m254.821 339.112c-4.407 0-8.01 3.608-8.01 8 0 4.367 3.55 8 8.01 8 4.396 0 7.99-3.568 7.99-8 0-4.483-3.669-8-7.99-8z"/><path d="m342.093 398.009c10.933 0 10.946-16 0-16-4.418 0-8 3.582-8 8s3.582 8 8 8z"/></g></svg>