<svg height="512pt" viewBox="-11 0 512 512" width="512pt" xmlns="http://www.w3.org/2000/svg"><path d="m490 267c0 135.308594-109.691406 245-245 245s-245-109.691406-245-245 109.691406-245 245-245 245 109.691406 245 245zm0 0" fill="#2d4cad"/><path d="m331.886719 262.210938c-4.671875 0-8.460938-3.789063-8.460938-8.460938v-68.597656c0-4.671875 3.789063-8.460938 8.460938-8.460938s8.460937 3.789063 8.460937 8.460938v68.597656c0 4.671875-3.789062 8.460938-8.460937 8.460938zm0 0" fill="#f75959"/><path d="m359.773438 262.210938c-4.675782 0-8.460938-3.789063-8.460938-8.460938v-68.597656c0-4.671875 3.785156-8.460938 8.460938-8.460938 4.671874 0 8.457031 3.789063 8.457031 8.460938v68.597656c0 4.671875-3.785157 8.460938-8.457031 8.460938zm0 0" fill="#5e73dd"/><path d="m331.886719 223.597656c-4.671875 0-8.460938-3.789062-8.460938-8.460937v38.613281c0 4.671875 3.789063 8.460938 8.460938 8.460938s8.460937-3.789063 8.460937-8.460938v-38.613281c0 4.671875-3.789062 8.460937-8.460937 8.460937zm0 0" fill="#ea4747"/><path d="m359.773438 223.597656c-4.675782 0-8.460938-3.789062-8.460938-8.460937v38.613281c0 4.671875 3.785156 8.460938 8.460938 8.460938 4.671874 0 8.457031-3.789063 8.457031-8.460938v-38.613281c0 4.671875-3.785157 8.460937-8.457031 8.460937zm0 0" fill="#4660c5"/><path d="m81.265625 274.6875h325.722656v140.324219h-325.722656zm0 0" fill="#8d9deb"/><path d="m81.265625 274.6875h43.261719v140.324219h-43.261719zm0 0" fill="#5e73dd"/><path d="m331.886719 316.585938c-4.671875 0-8.460938-3.789063-8.460938-8.460938v-32.722656c0-4.671875 3.789063-8.460938 8.460938-8.460938s8.460937 3.789063 8.460937 8.460938v32.722656c0 4.671875-3.789062 8.460938-8.460937 8.460938zm0 0" fill="#ea4747"/><path d="m359.773438 316.585938c-4.675782 0-8.460938-3.789063-8.460938-8.460938v-32.722656c0-4.671875 3.785156-8.460938 8.460938-8.460938 4.671874 0 8.457031 3.789063 8.457031 8.460938v32.722656c0 4.671875-3.785157 8.460938-8.457031 8.460938zm0 0" fill="#4660c5"/><path d="m81.265625 449.238281c43.394531 39.015625 100.789063 62.761719 163.734375 62.761719 62.109375 0 118.804688-23.121094 161.988281-61.210938v-13.917968h-325.722656zm0 0" fill="#8d9deb"/><path d="m124.527344 436.871094h-43.261719v12.367187c13.203125 11.871094 27.707031 22.316407 43.261719 31.121094zm0 0" fill="#5e73dd"/><path d="m431.058594 426.382812v-164.355468c0-7.617188-6.171875-13.792969-13.789063-13.792969h-344.539062c-7.617188 0-13.789063 6.175781-13.789063 13.792969v164.355468c8.453125 9.859376 17.679688 19.035157 27.578125 27.441407v-178.007813h316.957031v178.007813c9.902344-8.40625 19.128907-17.582031 27.582032-27.441407zm0 0" fill="#bbc7f9"/><path d="m124.101562 248.234375h-51.371093c-7.617188 0-13.789063 6.175781-13.789063 13.792969v164.355468c8.453125 9.859376 17.679688 19.035157 27.582032 27.441407v-178.007813h37.578124c-13.921874-3.890625-13.921874-23.691406 0-27.582031zm0 0" fill="#8d9deb"/><path d="m58.941406 262.027344v164.355468c8.453125 9.859376 17.679688 19.035157 27.578125 27.441407v-178.007813l-23.332031-23.730468c-2.613281 2.507812-4.246094 6.03125-4.246094 9.941406zm0 0" fill="#bbc7f9"/><path d="m403.480469 453.824219c9.898437-8.40625 19.125-17.582031 27.578125-27.441407v-164.355468c0-3.910156-1.632813-7.433594-4.246094-9.941406l-23.332031 23.730468zm0 0" fill="#d7dff7"/><path d="m274.890625 187.410156h-59.78125l-9.023437 35.710938h77.828124zm0 0" fill="#bbc7f9"/><path d="m237.957031 200.890625c2.003907-7.925781 9.136719-13.480469 17.3125-13.480469h-40.160156l-9.023437 35.710938h49.183593c-11.636719 0-20.160156-10.949219-17.3125-22.230469zm0 0" fill="#8d9deb"/><path d="m362.5625 303.402344h-235.125c-5.933594 0-10.746094 4.8125-10.746094 10.746094v97.03125h256.617188v-97.03125c0-5.933594-4.8125-10.746094-10.746094-10.746094zm0 0" fill="#5e73dd"/><path d="m172.003906 303.402344h-44.566406c-5.933594 0-10.746094 4.8125-10.746094 10.746094v97.03125h44.566406v-97.03125c0-5.933594 4.8125-10.746094 10.746094-10.746094zm0 0" fill="#4660c5"/><path d="m337.855469 351.601562c-6.136719 0-11.28125-4.976562-11.28125-11.28125 0-7.222656 6.664062-12.433593 13.480469-11.066406 5.4375 1.101563 9.082031 5.859375 9.082031 11.066406 0 6.214844-5.066407 11.28125-11.28125 11.28125zm0 0" fill="#58d5f3"/><path d="m337.855469 385.539062c-6.113281 0-11.28125-4.945312-11.28125-11.277343 0-7.195313 6.617187-12.4375 13.480469-11.054688 5.40625 1.09375 9.082031 5.800781 9.082031 11.054688 0 6.113281-4.957031 11.277343-11.28125 11.277343zm0 0" fill="#58d5f3"/><path d="m182.859375 357.289062c0-8.925781-5.417969-16.585937-13.140625-19.875v-2.515624c0-4.671876-3.789062-8.460938-8.460938-8.460938-4.671874 0-8.460937 3.789062-8.460937 8.460938v2.511718c-7.722656 3.292969-13.140625 10.953125-13.140625 19.878906 0 8.929688 5.417969 16.585938 13.140625 19.878907v2.515625c0 4.671875 3.789063 8.460937 8.460937 8.460937 4.671876 0 8.460938-3.789062 8.460938-8.460937v-2.515625c7.722656-3.289063 13.140625-10.949219 13.140625-19.878907zm0 0" fill="#8d9deb"/><path d="m299.660156 331.515625h-88.359375c-3.007812 0-5.445312 2.4375-5.445312 5.445313v40.660156c0 3.007812 2.4375 5.445312 5.445312 5.445312h88.359375c3.007813 0 5.445313-2.4375 5.445313-5.445312v-40.660156c0-3.007813-2.4375-5.445313-5.445313-5.445313zm0 0" fill="#f0d334"/><path d="m255.480469 377.621094v-40.660156c0-3.007813 2.4375-5.445313 5.445312-5.445313h-49.625c-3.007812 0-5.445312 2.4375-5.445312 5.445313v40.660156c0 3.007812 2.4375 5.445312 5.445312 5.445312h49.625c-3.007812 0-5.445312-2.4375-5.445312-5.445312zm0 0" fill="#eabc28"/><path d="m161.265625 368.574219c-6.136719 0-11.28125-4.972657-11.28125-11.277344 0-7.179687 6.601563-12.453125 13.480469-11.066406 5.347656 1.085937 9.066406 5.734375 9.066406 11.066406 0 6.367187-5.207031 11.277344-11.265625 11.277344zm0 0" fill="#bbc7f9"/><path d="m288.828125 220.65625c-15.089844 0-72.558594 0-87.65625 0-7.617187 0-13.792969 6.171875-13.792969 13.789062 0 7.617188 6.175782 13.789063 13.792969 13.789063h87.65625c7.617187 0 13.792969-6.171875 13.792969-13.789063 0-7.617187-6.175782-13.789062-13.792969-13.789062zm0 0" fill="#d7dff7"/><path d="m233.390625 234.445312c0-7.617187 6.175781-13.789062 13.789063-13.789062-18.847657 0-38.15625 0-46.007813 0-7.617187 0-13.792969 6.171875-13.792969 13.789062 0 7.617188 6.175782 13.789063 13.792969 13.789063h46.007813c-7.613282 0-13.789063-6.171875-13.789063-13.789063zm0 0" fill="#bbc7f9"/><path d="m364.335938 192.832031h-238.671876c-12.613281 0-22.871093-10.261719-22.871093-22.871093v-147.089844c0-12.609375 10.257812-22.871094 22.871093-22.871094h238.671876c12.609374 0 22.871093 10.261719 22.871093 22.871094v147.089844c0 12.609374-10.257812 22.871093-22.871093 22.871093zm0 0" fill="#d7dff7"/><path d="m160.414062 169.960938v-147.089844c0-12.613282 10.257813-22.871094 22.871094-22.871094h-57.621094c-12.609374 0-22.871093 10.257812-22.871093 22.871094v147.089844c0 12.609374 10.261719 22.871093 22.871093 22.871093h57.621094c-12.613281 0-22.871094-10.261719-22.871094-22.871093zm0 0" fill="#bbc7f9"/><g fill="#58d5f3"><path d="m332.734375 99.359375c-4.617187 0-8.460937-3.757813-8.460937-8.457031 0-5.429688 4.96875-9.324219 10.109374-8.304688 4.085938.847656 6.8125 4.347656 6.8125 8.304688 0 4.808594-3.964843 8.457031-8.460937 8.457031zm0 0"/><path d="m358.113281 99.359375c-4.664062 0-8.460937-3.792969-8.460937-8.457031 0-5.367188 4.910156-9.335938 10.109375-8.304688 3.976562.828125 6.8125 4.234375 6.8125 8.304688 0 4.753906-3.925781 8.457031-8.460938 8.457031zm0 0"/><path d="m332.734375 126.984375c-4.691406 0-8.460937-3.816406-8.460937-8.460937 0-5.414063 5.015624-9.351563 10.109374-8.289063 4.230469.878906 6.8125 4.503906 6.8125 8.289063 0 4.792968-3.90625 8.460937-8.460937 8.460937zm0 0"/><path d="m358.113281 126.984375c-4.589843 0-8.460937-3.703125-8.460937-8.460937 0-5.378907 4.976562-9.359376 10.109375-8.289063 3.703125.695313 6.8125 4.070313 6.8125 8.289063 0 4.582031-3.722657 8.460937-8.460938 8.460937zm0 0"/><path d="m332.734375 44.101562c-4.539063 0-8.460937-3.671874-8.460937-8.460937 0-5.449219 5.046874-9.34375 10.109374-8.289063 3.71875.695313 6.8125 4.035157 6.8125 8.289063 0 4.816406-3.953124 8.460937-8.460937 8.460937zm0 0"/><path d="m358.113281 44.101562c-4.554687 0-8.460937-3.707031-8.460937-8.460937 0-5.382813 4.980468-9.359375 10.109375-8.289063 3.753906.703126 6.8125 4.085938 6.8125 8.289063 0 4.734375-3.886719 8.460937-8.460938 8.460937zm0 0"/><path d="m332.734375 71.726562c-4.699219 0-8.460937-3.804687-8.460937-8.460937 0-5.382813 4.921874-9.316406 10.109374-8.289063 4.027344.835938 6.8125 4.269532 6.8125 8.289063 0 4.652344-3.796874 8.460937-8.460937 8.460937zm0 0"/><path d="m358.113281 71.726562c-4.589843 0-8.460937-3.714843-8.460937-8.460937 0-5.335937 4.894531-9.320313 10.109375-8.289063 4.023437.835938 6.8125 4.273438 6.8125 8.289063 0 4.59375-3.738281 8.460937-8.460938 8.460937zm0 0"/></g><path d="m358.113281 163.457031h-25.382812c-4.671875 0-8.457031-3.785156-8.457031-8.460937 0-4.671875 3.785156-8.457032 8.457031-8.457032h25.382812c4.671875 0 8.457031 3.785157 8.457031 8.457032 0 4.675781-3.785156 8.460937-8.457031 8.460937zm0 0" fill="#bbc7f9"/><path d="m345.421875 155c0-4.671875 3.789063-8.460938 8.460937-8.460938h-21.152343c-4.671875 0-8.457031 3.789063-8.457031 8.460938s3.785156 8.460938 8.457031 8.460938h21.152343c-4.671874-.003907-8.460937-3.789063-8.460937-8.460938zm0 0" fill="#8d9deb"/><path d="m138.035156 165.089844h160.914063c4.144531 0 7.5-3.359375 7.5-7.5v-122.347656c0-4.140626-3.355469-7.5-7.5-7.5h-160.914063c-4.140625 0-7.5 3.359374-7.5 7.5v122.347656c0 4.140625 3.359375 7.5 7.5 7.5zm0 0" fill="#5e73dd"/><path d="m138.035156 27.742188c-4.140625 0-7.5 3.359374-7.5 7.5v122.347656c0 4.140625 3.359375 7.496094 7.5 7.496094h22.378906v-137.34375zm0 0" fill="#4660c5"/><path d="m130.535156 138.078125v19.511719c0 4.140625 3.359375 7.5 7.5 7.5h160.914063c4.144531 0 7.5-3.359375 7.5-7.5v-19.511719zm0 0" fill="#4660c5"/><path d="m130.535156 138.078125v19.511719c0 4.140625 3.359375 7.5 7.5 7.5h22.378906v-27.011719zm0 0" fill="#2d4cad"/><path d="m86.519531 438.761719v-27.582031h316.960938v27.582031zm0 0" fill="#bbc7f9"/><path d="m112.019531 424.96875c0-7.613281 6.175781-13.789062 13.792969-13.789062h-39.292969v27.582031h39.292969c-7.617188 0-13.792969-6.175781-13.792969-13.792969zm0 0" fill="#8d9deb"/></svg>