<svg height="487pt" viewBox="-21 0 487 487.514" width="487pt" xmlns="http://www.w3.org/2000/svg"><path d="m239.027344 344.132812h-12.070313c-66.523437 0-120.449219-53.925781-120.449219-120.449218v-56.1875c0-66.519532 53.925782-120.445313 120.449219-120.445313h12.070313c66.523437 0 120.449218 53.925781 120.449218 120.445313v56.1875c0 66.523437-53.925781 120.449218-120.449218 120.449218zm0 0" fill="#4671c6"/><path d="m239.027344 348.132812h-12.066406c-68.625 0-124.449219-55.828124-124.449219-124.449218v-56.1875c0-68.621094 55.828125-124.445313 124.449219-124.445313h12.066406c68.625 0 124.449218 55.828125 124.449218 124.445313v56.1875c0 68.621094-55.828124 124.449218-124.449218 124.449218zm-12.070313-297.082031c-64.210937 0-116.449219 52.238281-116.449219 116.445313v56.1875c0 64.210937 52.238282 116.449218 116.449219 116.449218h12.070313c64.207031 0 116.449218-52.238281 116.449218-116.449218v-56.1875c0-64.207032-52.238281-116.445313-116.449218-116.445313zm0 0" fill="#3762cc"/><path d="m347.382812 216.917969c-.246093 0-.480468.03125-.722656.035156v-10.796875c0-63.105469-51.160156-114.261719-114.265625-114.261719s-114.261719 51.15625-114.261719 114.261719v10.796875c-.242187-.003906-.480468-.035156-.722656-.035156-19.253906 0-34.859375 15.609375-34.859375 34.859375 0 19.253906 15.605469 34.859375 34.859375 34.859375 1.261719 0 2.507813-.074219 3.738282-.203125 11.792968 50.546875 57.105468 88.214844 111.246093 88.214844 54.144531 0 99.457031-37.667969 111.246094-88.214844 1.230469.128906 2.476563.203125 3.742187.203125 19.25 0 34.859376-15.605469 34.859376-34.859375 0-19.25-15.609376-34.859375-34.859376-34.859375zm0 0" fill="#f9cfcf"/><path d="m232.394531 378.648438c-54.117187 0-100.652343-36.023438-114.328125-88.015626-21.777344.296876-39.519531-17.207031-39.519531-38.851562 0-20.324219 15.683594-37.054688 35.582031-38.726562v-6.894532c0-65.210937 53.050782-118.265625 118.265625-118.265625 65.210938 0 118.265625 53.054688 118.265625 118.265625v6.894532c19.898438 1.671874 35.582032 18.402343 35.582032 38.726562 0 21.648438-17.867188 39.207031-39.523438 38.851562-13.675781 51.992188-60.210938 88.015626-114.324219 88.015626zm-111.242187-96.214844c1.835937 0 3.464844 1.261718 3.890625 3.089844 11.691406 50.121093 55.835937 85.125 107.351562 85.125s95.660157-35.003907 107.351563-85.125c.460937-1.964844 2.335937-3.28125 4.320312-3.066407 1.164063.121094 2.25.183594 3.316406.183594 17.015626 0 30.859376-13.84375 30.859376-30.859375 0-17.011719-13.832032-30.851562-30.839844-30.859375-.308594.019531-.484375.03125-.664063.035156-1.03125.039063-2.109375-.390625-2.878906-1.144531-.769531-.75-1.199219-1.78125-1.199219-2.855469v-10.796875c0-60.796875-49.464844-110.261718-110.265625-110.261718s-110.265625 49.464843-110.265625 110.261718v10.796875c0 1.078125-.433594 2.105469-1.199218 2.855469-.769532.753906-1.816407 1.179688-2.878907 1.144531-.179687-.003906-.359375-.015625-.535156-.027343-.003906 0-.011719 0-.015625 0-17.121094 0-30.953125 13.839843-30.953125 30.851562 0 17.015625 13.84375 30.859375 30.859375 30.859375 1.066406 0 2.148438-.058594 3.316406-.183594.144532-.019531.285156-.023437.429688-.023437zm0 0" fill="#3762cc"/><path d="m177.414062 264.105469c-6.417968 0-11.617187-5.203125-11.617187-11.621094v-19.367187c0-6.417969 5.199219-11.621094 11.617187-11.621094 6.417969 0 11.621094 5.203125 11.621094 11.621094v19.367187c0 6.417969-5.203125 11.621094-11.621094 11.621094zm0 0" fill="#3762cc"/><path d="m287.375 264.105469c-6.417969 0-11.621094-5.203125-11.621094-11.621094v-19.367187c0-6.417969 5.203125-11.621094 11.621094-11.621094s11.617188 5.203125 11.617188 11.621094v19.367187c0 6.417969-5.203126 11.621094-11.617188 11.621094zm0 0" fill="#3762cc"/><path d="m232.394531 319.949219c-16.207031 0-28.898437-9.050781-28.898437-20.597657 0-2.210937 1.792968-4 4-4 2.210937 0 4 1.789063 4 4 0 6.828126 9.570312 12.597657 20.898437 12.597657s20.898438-5.769531 20.898438-12.597657c0-2.210937 1.789062-4 4-4 2.207031 0 4 1.789063 4 4 0 11.546876-12.695313 20.597657-28.898438 20.597657zm0 0" fill="#3762cc"/><path d="m241.285156 61.484375h-14.273437v.019531c-74.949219 13.402344-126.492188 70.933594-115.21875 128.8125l.179687.925782 47.683594-8.320313c40.882812-7.132813 70.304688-38.511719 73.554688-74.664063h.398437c1.5625 36.148438 29.609375 68.84375 70.421875 78.050782l47.765625 10.78125.230469-.917969c14.429687-57.277344-34.714844-117.457031-109.832032-134.691406h-.910156zm0 0" fill="#4671c6"/><path d="m346.027344 111.878906s-4.71875-1.027344-13.363282-2.414062c-3.101562-.515625-6.164062-1-9.175781-1.445313-.003906 0-.007812 0-.015625 0-2.167968-.324219-4.320312-.632812-6.445312-.917969-.050782-.007812-.101563-.011718-.152344-.023437-.125-.015625-.246094-.03125-.367188-.046875-2.355468-.320312-4.6875-.617188-6.984374-.894531-8.839844-1.066407-17.214844-1.847657-25.070313-2.402344-.144531-.011719-.289063-.019531-.433594-.03125-5.675781-.394531-11.074219-.675781-16.179687-.859375-.003906 0-.007813 0-.011719 0-1.664063-.0625-3.289063-.113281-4.890625-.152344-.199219-.003906-.414062-.011718-.613281-.015625-.324219-.011719-.652344-.019531-.976563-.027343-.21875-.003907-.429687-.003907-.652344-.011719-.449218-.007813-.878906-.011719-1.328124-.019531-37.765626-1.335938-85.164063.164062-136.660157 9.261718.011719-.003906.023438-.003906.03125-.007812-12.574219 15.808594-20.101562 35.804687-20.101562 57.570312v4.785156c56.234375-9.605468 107.84375-11.765624 149.972656-10.8125 0 0 41.476563.617188 84.050781 6.554688.066406.007812.132813.015625.195313.027344 1.003906.140625 1.980469.28125 2.929687.417968.316406.046876.636719.09375.953125.140626 1.089844.160156 2.136719.316406 3.144531.472656 6.15625.945312 12.285157 2.007812 18.265626 3.203125v-12.664063c.003906-18.570312-5.988282-35.726562-16.121094-49.6875zm0 0" fill="#e0ebfc"/><path d="m362.152344 178.230469c-.261719 0-.523438-.027344-.78125-.078125-5.613282-1.121094-11.699219-2.1875-18.097656-3.171875l-6.96875-1.023438c-.011719 0-.214844-.027343-.222657-.03125-41.792969-5.828125-83.117187-6.503906-83.53125-6.511719-50.554687-1.148437-100.757812 2.472657-149.242187 10.757813-1.164063.199219-2.351563-.125-3.25-.882813-.902344-.761718-1.421875-1.878906-1.421875-3.058593v-4.785157c0-21.894531 7.15625-42.53125 20.695312-59.710937.578125-.910156 1.519531-1.582031 2.664063-1.789063.003906 0 .011718-.003906.019531-.003906 44.390625-7.839844 90.65625-10.976562 137.496094-9.320312l3.53125.074218c1.617187.039063 3.257812.089844 4.9375.152344h.066406c5.34375.195313 10.8125.484375 16.257813.867188l.285156.019531c8.503906.601563 17.003906 1.414063 25.421875 2.433594 2.3125.28125 4.660156.578125 7.035156.898437l.371094.050782c2.292969.3125 4.460937.621093 6.652343.945312.007813 0 .019532 0 .027344.003906 3.035156.449219 6.113282.933594 9.230469 1.453125 8.632813 1.382813 13.363281 2.410157 13.558594 2.453125.957031.207032 1.804687.761719 2.382812 1.558594 11.046875 15.21875 16.886719 33.210938 16.886719 52.039062v12.660157c0 1.199219-.535156 2.335937-1.460938 3.09375-.726562.589843-1.625.90625-2.542968.90625zm-237.207032-62.683594c-11.984374 15.585937-18.308593 34.183594-18.308593 53.898437v.058594c47.535156-7.8125 96.660156-11.207031 146.066406-10.085937.382813.007812 42.179687.6875 84.511719 6.589843.015625.003907.226562.03125.242187.035157l7.03125 1.027343c4.742188.730469 9.320313 1.503907 13.664063 2.3125v-7.816406c0-16.613281-4.996094-32.515625-14.46875-46.089844-2.007813-.398437-5.984375-1.15625-11.648438-2.066406-3.105468-.511718-6.140625-.992187-9.132812-1.433594-.011719-.003906-.027344-.003906-.042969-.007812-2.140625-.316406-4.269531-.621094-6.363281-.90625-.027344 0-.203125-.027344-.226563-.03125l-.273437-.039062c-2.359375-.316407-4.671875-.613282-6.949219-.886719-8.289063-1-16.652344-1.800781-24.875-2.382813l-.445313-.03125c-5.359374-.375-10.757812-.660156-16.03125-.851562-.046874 0-.101562-.003906-.148437-.007813-1.683594-.058593-3.207031-.105469-4.710937-.140625l-3.542969-.078125c-45.816407-1.621093-90.980469 1.390625-134.347657 8.933594zm0 0" fill="#3762cc"/><path d="m289.597656 104.691406.113282-.046875s-12.507813-1.824219-34.136719-2.082031v-.058594c-37.128907-1.109375-83.070313.574219-132.863281 9.375.007812-.003906.019531-.003906.03125-.007812-3.410157 4.285156-6.429688 8.886718-9.050782 13.738281-.09375.160156-.195312.308594-.28125.472656-.15625.292969-.289062.601563-.441406.894531-.519531 1-1.015625 2.015626-1.5 3.035157-.199219.421875-.410156.839843-.605469 1.265625-.625 1.378906-1.210937 2.78125-1.769531 4.199218-.207031.519532-.402344 1.042969-.597656 1.566407-.417969 1.117187-.8125 2.242187-1.1875 3.382812-.144532.4375-.300782.867188-.4375 1.308594-.476563 1.511719-.910156 3.042969-1.308594 4.585937-.109375.429688-.207031.863282-.3125 1.292969-.304688 1.25-.582031 2.511719-.832031 3.785157-.089844.449218-.183594.898437-.265625 1.351562-.300782 1.625-.558594 3.265625-.769532 4.921875-.035156.28125-.058593.566406-.089843.851563-.167969 1.433593-.304688 2.875-.40625 4.328124-.03125.464844-.0625.929688-.089844 1.394532-.09375 1.722656-.160156 3.449218-.160156 5.195312v4.785156c56.234375-9.605468 107.84375-11.765624 149.972656-10.8125 0 0 1.046875.015626 2.964844.066407v-.351563l34.882812-3.339844c14.597657-1.398437 26.183594-13.667968 25.742188-28.324218-.445313-14.863282-12.363281-26.28125-26.601563-26.773438zm0 0" fill="#e0ebfc"/><g fill="#3762cc"><path d="m102.636719 178.230469c-.9375 0-1.851563-.332031-2.582031-.941407-.902344-.761718-1.417969-1.878906-1.417969-3.058593v-4.785157c0-1.625.050781-3.34375.164062-5.414062l.09375-1.453125c.109375-1.519531.246094-3.023437.421875-4.519531l.097656-.890625c.210938-1.632813.472657-3.3125.804688-5.132813l.273438-1.410156c.261718-1.328125.554687-2.648438.871093-3.953125l.324219-1.347656c.417969-1.613281.871094-3.210938 1.367188-4.789063.09375-.304687.195312-.605468.296874-.910156l.15625-.457031c.394532-1.191407.804688-2.367188 1.242188-3.53125l.082031-.214844c.175781-.472656.351563-.945313.539063-1.414063.585937-1.480468 1.195312-2.949218 1.847656-4.386718.132812-.292969.273438-.582032.414062-.867188l.21875-.457031c.5-1.0625 1.019532-2.117187 1.5625-3.160156l.144532-.300781c.101562-.210938.203125-.421876.3125-.628907.101562-.191406.207031-.367187.316406-.542969 2.652344-4.902343 5.730469-9.601562 9.140625-13.933593.578125-.910157 1.519531-1.582031 2.664063-1.789063.003906 0 .011718-.003906.019531-.003906 43.121093-7.617188 88.085937-10.800781 133.679687-9.433594.214844.003906.429688.027344.632813.066406 21.210937.289063 33.445312 2.039063 33.960937 2.117188.082032.011719.160156.023438.238282.039062 16.214843.972657 29.179687 14.269532 29.671874 30.621094.496094 16.554688-12.398437 30.800782-29.363281 32.425782l-33.289062 3.1875c-.625.355468-1.347657.523437-2.074219.519531-1.878906-.046875-2.90625-.066407-2.921875-.066407-50.546875-1.152343-100.761719 2.472657-149.242187 10.757813-.21875.039063-.445313.058594-.667969.058594zm22.308593-62.683594c-2.859374 3.730469-5.457031 7.75-7.730468 11.964844l-.695313 1.304687c-.496093.960938-.972656 1.929688-1.433593 2.90625l-.261719.542969c-.105469.21875-.214844.441406-.316407.667969-.601562 1.320312-1.15625 2.664062-1.695312 4.019531-.164062.421875-.324219.847656-.488281 1.277344l-.082031.21875c-.398438 1.066406-.777344 2.144531-1.136719 3.234375l-.417969 1.246094c-.453125 1.449218-.871094 2.914062-1.25 4.390624l-.296875 1.238282c-.292969 1.199218-.554687 2.40625-.796875 3.621094l-.253906 1.296874c-.304688 1.671876-.546875 3.210938-.738282 4.703126l-.085937.816406c-.164063 1.375-.289063 2.753906-.386719 4.144531l-.089844 1.335937c-.105468 1.914063-.152343 3.496094-.152343 4.96875v.058594c47.535156-7.8125 96.644531-11.207031 146.066406-10.085937.003906 0 .460937.007812 1.320313.027343.367187-.15625.757812-.253906 1.167968-.292968l34.882813-3.339844c12.777343-1.222656 22.496093-11.863281 22.125-24.222656-.375-12.414063-10.363281-22.472656-22.742188-22.902344-.371093-.011719-.726562-.074219-1.0625-.179688-2.964843-.378906-14.710937-1.726562-32.871093-1.945312-.261719-.003906-.519532-.03125-.769532-.082031-44.246094-1.277344-87.914062 1.777343-129.808594 9.066406zm0 0"/><path d="m327.367188 260.417969c-.355469 0-.71875-.046875-1.078126-.148438-2.125-.59375-3.371093-2.800781-2.777343-4.925781.707031-2.535156 1.066406-5.164062 1.066406-7.828125 0-2.207031 1.792969-4 4-4s4 1.792969 4 4c0 3.390625-.457031 6.75-1.359375 9.976563-.492188 1.769531-2.101562 2.925781-3.851562 2.925781zm0 0"/><path d="m281.082031 284.199219c-.183593 0-.367187-.011719-.554687-.039063-7.132813-.992187-13.777344-4.03125-19.214844-8.789062-1.664062-1.457032-1.832031-3.984375-.378906-5.644532 1.457031-1.660156 3.980468-1.832031 5.644531-.375 4.261719 3.726563 9.46875 6.109376 15.050781 6.886719 2.1875.304688 3.714844 2.324219 3.410156 4.511719-.277343 2-1.992187 3.449219-3.957031 3.449219zm19.070313 0c-1.964844 0-3.679688-1.453125-3.960938-3.453125-.300781-2.1875 1.226563-4.207032 3.414063-4.511719 5.585937-.773437 10.792969-3.152344 15.054687-6.882813 1.660156-1.457031 4.191406-1.285156 5.644532.375 1.453124 1.664063 1.285156 4.191407-.378907 5.644532-5.441406 4.761718-12.085937 7.800781-19.21875 8.789062-.1875.027344-.371093.039063-.554687.039063zm0 0"/><path d="m253.871094 260.417969c-1.75 0-3.359375-1.15625-3.855469-2.925781-.898437-3.234376-1.359375-6.59375-1.359375-9.976563 0-2.207031 1.789062-4 4-4 2.207031 0 4 1.792969 4 4 0 2.660156.359375 5.289063 1.066406 7.828125.59375 2.125-.648437 4.332031-2.777344 4.925781-.355468.101563-.71875.148438-1.074218.148438zm0 0"/><path d="m210.917969 260.417969c-.355469 0-.714844-.046875-1.078125-.148438-2.125-.59375-3.371094-2.800781-2.773438-4.925781.707032-2.535156 1.066406-5.167969 1.066406-7.828125 0-2.207031 1.789063-4 4-4 2.207032 0 4 1.792969 4 4 0 3.386719-.460937 6.746094-1.363281 9.976563-.496093 1.769531-2.101562 2.925781-3.851562 2.925781zm0 0"/><path d="m164.632812 284.199219c-.1875 0-.371093-.011719-.554687-.039063-7.136719-.988281-13.78125-4.03125-19.222656-8.792968-1.660157-1.457032-1.828125-3.980469-.375-5.644532 1.453125-1.660156 3.980469-1.828125 5.644531-.375 4.261719 3.730469 9.464844 6.113282 15.050781 6.886719 2.1875.304687 3.714844 2.324219 3.410157 4.511719-.273438 2.003906-1.992188 3.453125-3.953126 3.453125zm19.074219 0c-1.96875 0-3.683593-1.453125-3.960937-3.453125-.304688-2.1875 1.226562-4.207032 3.414062-4.511719 5.585938-.773437 10.789063-3.152344 15.054688-6.882813 1.664062-1.457031 4.1875-1.285156 5.640625.375 1.457031 1.664063 1.289062 4.191407-.375 5.644532-5.441407 4.761718-12.085938 7.800781-19.222657 8.789062-.183593.027344-.367187.039063-.550781.039063zm0 0"/><path d="m137.421875 260.417969c-1.75 0-3.355469-1.15625-3.851563-2.925781-.902343-3.234376-1.359374-6.59375-1.359374-9.976563 0-2.207031 1.789062-4 4-4 2.207031 0 4 1.792969 4 4 0 2.660156.359374 5.289063 1.066406 7.828125.59375 2.125-.648438 4.332031-2.777344 4.925781-.359375.101563-.722656.148438-1.078125.148438zm0 0"/></g><path d="m306.984375 386.085938h-12.042969l-3.730468-.878907c-3.613282-.851562-6.160157-4.078125-6.160157-7.785156v-15.628906c-15.757812 8.203125-33.660156 12.855469-52.65625 12.855469-19 0-36.898437-4.652344-52.65625-12.855469v16.402343c0 3.375-2.117187 6.382813-5.292969 7.527344l-.316406.113282c-.308594.109374-.625.179687-.941406.25h-11.566406c-39.765625 0-72 32.234374-72 72v25.429687h91.605468v-.484375h106.152344v.484375h91.601563v-25.429687c.003906-39.765626-32.234375-72-71.996094-72zm0 0" fill="#f9cfcf"/><path d="m342.394531 483.515625h-220v-41.269531c0-6.664063 5.402344-12.066406 12.066407-12.066406h195.867187c6.664063 0 12.066406 5.402343 12.066406 12.066406zm0 0" fill="#e0ebfc"/><path d="m342.394531 487.515625h-220c-2.210937 0-4-1.792969-4-4v-41.269531c0-8.859375 7.207031-16.066406 16.066407-16.066406h195.863281c8.859375 0 16.066406 7.207031 16.066406 16.066406v41.269531c.003906 2.207031-1.789063 4-3.996094 4zm-216-8h212v-37.269531c0-4.449219-3.621093-8.066406-8.066406-8.066406h-195.867187c-4.449219 0-8.066407 3.617187-8.066407 8.066406zm0 0" fill="#3762cc"/><path d="m378.980469 487.515625h-91.601563c-.691406 0-1.339844-.175781-1.910156-.484375h-102.332031c-.570313.308594-1.21875.484375-1.910157.484375h-91.601562c-2.207031 0-4-1.792969-4-4v-25.429687c0-41.90625 34.09375-76 76-76h11.113281c.011719-.003907.023438-.007813.035157-.011719l.320312-.113281c1.582031-.570313 2.648438-2.085938 2.648438-3.765626v-16.402343c0-1.398438.730468-2.691407 1.921874-3.417969 1.195313-.722656 2.683594-.773438 3.921876-.128906 15.808593 8.230468 32.902343 12.402344 50.808593 12.402344 17.902344 0 35-4.171876 50.808594-12.402344 1.238281-.644532 2.726563-.597656 3.921875.128906s1.925781 2.019531 1.925781 3.417969v15.628906c0 1.863281 1.265625 3.460937 3.082031 3.890625l3.273438.773438h11.574219c41.90625 0 76 34.09375 76 76v25.429687c0 2.207031-1.789063 4-4 4zm-89.691407-8h85.691407v-21.429687c0-37.496094-30.503907-68-68-68h-12.042969c-.304688 0-.617188-.035157-.917969-.109376l-3.726562-.875c-5.445313-1.289062-9.242188-6.089843-9.242188-11.679687v-9.242187c-15.210937 6.867187-31.898437 10.46875-48.65625 10.46875-16.757812 0-33.449219-3.601563-48.65625-10.46875v10.015624c0 5.042969-3.1875 9.582032-7.933593 11.289063l-.316407.117187c-.46875.167969-.953125.285157-1.4375.390626-.28125.0625-.574219.09375-.863281.09375h-11.5625c-37.496094 0-68 30.503906-68 68v21.429687h85.691406c.570313-.308594 1.21875-.484375 1.910156-.484375h106.152344c.691406 0 1.34375.175781 1.910156.484375zm0 0" fill="#3762cc"/><path d="m195.03125 372.324219c-2.207031 0-4-1.792969-4-4 0-3.390625.457031-6.75 1.363281-9.976563.59375-2.128906 2.796875-3.371094 4.929688-2.777344 2.125.59375 3.367187 2.800782 2.773437 4.929688-.707031 2.53125-1.070312 5.164062-1.070312 7.824219.003906 2.210937-1.789063 4-3.996094 4zm0 0" fill="#3762cc"/><path d="m259.667969 347.476562c-.933594 0-1.871094-.324218-2.628907-.988281-4.265624-3.730469-9.46875-6.113281-15.054687-6.886719-2.1875-.304687-3.714844-2.324218-3.410156-4.511718.304687-2.191406 2.316406-3.722656 4.511719-3.414063 7.132812.992188 13.78125 4.03125 19.21875 8.789063 1.664062 1.457031 1.832031 3.984375.375 5.644531-.789063.90625-1.898438 1.367187-3.011719 1.367187zm-53.351563 0c-1.113281 0-2.222656-.460937-3.011718-1.367187-1.453126-1.664063-1.285157-4.1875.375-5.644531 5.445312-4.757813 12.089843-7.796875 19.222656-8.789063 2.191406-.316406 4.207031 1.222657 4.511718 3.414063.304688 2.1875-1.222656 4.207031-3.414062 4.511718-5.582031.773438-10.789062 3.15625-15.054688 6.882813-.757812.664063-1.695312.992187-2.628906.992187zm0 0" fill="#3762cc"/><path d="m270.953125 372.324219c-2.207031 0-4-1.792969-4-4 0-2.660157-.359375-5.289063-1.066406-7.828125-.59375-2.125.648437-4.332032 2.777343-4.925782 2.128907-.59375 4.335938.648438 4.925782 2.777344.90625 3.234375 1.367187 6.589844 1.367187 9.976563-.003906 2.210937-1.792969 4-4.003906 4zm0 0" fill="#3762cc"/><path d="m141.613281 332.378906 44.726563-44.726562 5.601562 12.867187-41.09375 41.097657zm0 0" fill="#e0ebfc"/><path d="m150.847656 345.617188c-1.023437 0-2.046875-.390626-2.828125-1.171876l-9.234375-9.238281c-.75-.75-1.175781-1.765625-1.175781-2.828125 0-1.058594.425781-2.078125 1.175781-2.828125l44.726563-44.726562c.9375-.9375 2.277343-1.347657 3.574219-1.101563 1.300781.246094 2.394531 1.121094 2.921874 2.332032l5.601563 12.871093c.65625 1.507813.324219 3.261719-.839844 4.425781l-41.09375 41.09375c-.78125.777344-1.804687 1.171876-2.828125 1.171876zm-3.578125-13.238282 3.578125 3.578125 36.339844-36.339843-2.171875-4.984376zm0 0" fill="#3762cc"/><path d="m35.878906 411.164062 78.886719-78.886718c3.152344-3.152344 7.976563-3.441406 10.773437-.644532l24.238282 24.242188c2.796875 2.796875 2.511718 7.617188-.640625 10.769531l-78.890625 78.890625zm0 0" fill="#e0ebfc"/><path d="m66.429688 434.019531 68.042968-68.042969c1.515625-1.515624 1.679688-3.8125.363282-5.125l-14.273438-14.277343c-1.316406-1.3125-3.609375-1.148438-5.128906.367187l-68.039063 68.039063zm0 0" fill="#a4c9ff"/><path d="m5.453125 444.945312 31.015625 31.015626c1.597656 1.597656 4.191406 1.597656 5.789062 0l3.503907-3.503907c1.597656-1.597656 1.597656-4.191406 0-5.789062l-31.015625-31.015625c-1.597656-1.597656-4.191406-1.597656-5.789063 0l-3.503906 3.503906c-1.601563 1.597656-1.601563 4.191406 0 5.789062zm0 0" fill="#4671c6"/><path d="m38.097656 459.085938-15.773437-15.769532 14.367187-14.371094 15.773438 15.773438zm0 0" fill="#a4c9ff"/><path d="m23.5625 415.808594 42.042969 42.042968c1.164062 1.167969 3.054687 1.167969 4.222656 0l4.253906-4.253906c1.167969-1.167968 1.167969-3.058594 0-4.222656l-42.042969-42.046875c-1.164062-1.164063-3.054687-1.164063-4.222656 0l-4.253906 4.257813c-1.167969 1.164062-1.167969 3.054687 0 4.222656zm0 0" fill="#6bdddd"/><path d="m110.3125 380.269531 10.773438 10.773438c.824218.824219 2.234374.753906 3.148437-.15625.910156-.914063.980469-2.324219.15625-3.148438l-10.773437-10.773437c-.828126-.828125-2.238282-.757813-3.148438.15625-.914062.910156-.984375 2.320312-.15625 3.148437zm0 0" fill="#f9a7a7"/><path d="m92.105469 391.140625 14.367187 14.367187c.824219.828126 2.234375.757813 3.148438-.15625.910156-.910156.980468-2.320312.152344-3.148437l-14.363282-14.363281c-.828125-.828125-2.238281-.757813-3.148437.152344-.914063.914062-.984375 2.324218-.15625 3.148437zm0 0" fill="#f9a7a7"/><path d="m81.230469 409.351562 10.773437 10.773438c.824219.824219 2.234375.753906 3.148438-.15625.910156-.914062.980468-2.324219.15625-3.148438l-10.773438-10.773437c-.828125-.828125-2.238281-.757813-3.148437.15625-.914063.910156-.984375 2.320313-.15625 3.148437zm0 0" fill="#f9a7a7"/><path d="m66.6875 423.890625 10.777344 10.773437c.824218.824219 2.234375.757813 3.144531-.15625.914063-.910156.984375-2.320312.15625-3.148437l-10.773437-10.773437c-.824219-.824219-2.234376-.757813-3.148438.15625-.910156.910156-.980469 2.320312-.15625 3.148437zm0 0" fill="#f9a7a7"/><path d="m124.851562 365.726562 10.777344 10.773438c.824219.824219 2.234375.757812 3.144532-.15625.914062-.910156.984374-2.320312.15625-3.148438l-10.773438-10.773437c-.824219-.824219-2.234375-.757813-3.148438.15625-.910156.910156-.980468 2.320313-.15625 3.148437zm0 0" fill="#f9a7a7"/><path d="m127.742188 333.839844 4.660156-4.660156c2.332031-2.332032 5.902344-2.546876 7.972656-.476563l12.335938 12.335937c2.066406 2.070313 1.855468 5.640626-.476563 7.972657l-4.660156 4.660156zm0 0" fill="#6bdddd"/><path d="m39.359375 481.152344c-2.070313 0-4.140625-.789063-5.71875-2.367188l-31.015625-31.015625c-3.15625-3.152343-3.15625-8.289062 0-11.445312l3.503906-3.503907c1.527344-1.527343 3.558594-2.371093 5.722656-2.371093 2.160157 0 4.195313.84375 5.722657 2.371093l31.011719 31.015626c1.53125 1.527343 2.375 3.558593 2.375 5.722656 0 2.160156-.84375 4.195312-2.375 5.722656l-3.503907 3.503906c-1.574219 1.582032-3.648437 2.367188-5.722656 2.367188zm-27.445313-42.671875-3.636718 3.636719 31.019531 31.015624 3.632813-3.503906zm0 0" fill="#3762cc"/><path d="m38.097656 463.085938c-1.023437 0-2.046875-.390626-2.828125-1.175782l-15.769531-15.769531c-1.5625-1.5625-1.5625-4.09375 0-5.65625l14.371094-14.371094c1.558594-1.5625 4.09375-1.5625 5.652344 0l15.773437 15.773438c1.5625 1.5625 1.5625 4.09375 0 5.65625l-14.371094 14.367187c-.777343.785156-1.800781 1.175782-2.828125 1.175782zm-10.113281-19.773438 10.117187 10.117188 8.710938-8.714844-10.117188-10.113282zm0 0" fill="#3762cc"/><path d="m67.71875 462.722656c-1.792969 0-3.578125-.679687-4.941406-2.042968l-42.042969-42.042969c-2.726563-2.722657-2.726563-7.15625-.003906-9.878907l4.257812-4.257812c2.636719-2.636719 7.242188-2.636719 9.882813.003906l42.039062 42.039063c1.320313 1.320312 2.046875 3.074219 2.046875 4.941406s-.726562 3.621094-2.046875 4.941406l-4.253906 4.253907c-1.359375 1.363281-3.152344 2.042968-4.9375 2.042968zm-40.613281-49.027344 40.613281 40.609376 2.820312-2.824219-40.609374-40.605469zm0 0" fill="#3762cc"/><path d="m147.574219 357.667969c-1.0625 0-2.078125-.421875-2.828125-1.171875l-19.828125-19.832032c-1.5625-1.558593-1.5625-4.09375 0-5.652343l4.660156-4.664063c3.890625-3.886718 10-4.101562 13.625-.476562l12.335937 12.335937c3.625 3.625 3.414063 9.738281-.476562 13.625l-4.660156 4.660157c-.75.753906-1.769532 1.175781-2.828125 1.175781zm-14.171875-23.828125 14.171875 14.171875 1.832031-1.832031c.800781-.796876.910156-1.878907.476562-2.3125l-12.335937-12.335938c-.429687-.433594-1.515625-.320312-2.3125.476562zm0 0" fill="#3762cc"/><path d="m70.246094 449.535156c-1.023438 0-2.046875-.390625-2.828125-1.171875l-34.367188-34.371093c-.75-.75-1.171875-1.769532-1.171875-2.828126 0-1.058593.421875-2.078124 1.171875-2.828124l78.886719-78.886719c4.703125-4.710938 12.078125-4.996094 16.429688-.644531l24.238281 24.242187c4.355469 4.351563 4.066406 11.722656-.640625 16.425781l-78.890625 78.890625c-.777344.78125-1.804688 1.171875-2.828125 1.171875zm-28.710938-38.371094 28.710938 28.710938 76.058594-76.058594c1.5625-1.558594 1.855468-3.902344.644531-5.113281l-24.238281-24.242187c-1.214844-1.210938-3.554688-.917969-5.117188.644531zm0 0" fill="#3762cc"/><path d="m226.957031 47.050781h12.070313c19.875 0 38.605468 4.839844 55.125 13.363281v-3.910156c0-29-23.503906-52.507812-52.503906-52.507812h-11.179688c-28.996094 0-52.503906 23.507812-52.503906 52.507812v.964844c14.96875-6.675781 31.539062-10.417969 48.992187-10.417969zm0 0" fill="#4671c6"/><path d="m294.152344 64.414062c-.628906 0-1.257813-.144531-1.835938-.445312-16.621094-8.570312-34.546875-12.917969-53.289062-12.917969h-12.070313c-16.445312 0-32.378906 3.390625-47.367187 10.074219-1.238282.550781-2.667969.4375-3.804688-.300781-1.136718-.734375-1.820312-2-1.820312-3.355469v-.964844c0-31.15625 25.347656-56.503906 56.503906-56.503906h11.179688c31.15625 0 56.503906 25.347656 56.503906 56.503906v3.910156c0 1.398438-.726563 2.691407-1.917969 3.417969-.640625.386719-1.359375.582031-2.082031.582031zm-67.195313-21.363281h12.070313c17.832031 0 34.976562 3.679688 51.058594 10.957031-1.300782-25.59375-22.53125-46.011718-48.441407-46.011718h-11.179687c-25.007813 0-45.65625 19.03125-48.234375 43.367187 14.28125-5.519531 29.292969-8.3125 44.726562-8.3125zm0 0" fill="#3762cc"/><path d="m437.855469 80.460938-2.890625-2.894532c-3.214844-3.214844-7.824219-3.816406-10.296875-1.347656l-66.855469 66.855469-54.464844 55.285156c-.875.890625-.960937 2.375-.050781 3.234375.730469.691406 1.898437 1.304688 3.757813 1.542969 25.535156.792969 47.378906-10.109375 58.5625-30.449219 1.460937-2.660156 2.867187-5.527344 4.195312-8.625 1.953125-4.550781 4.769531-8.691406 8.273438-12.191406l61.117187-61.117188c2.472656-2.46875 1.867187-7.078125-1.347656-10.292968zm0 0" fill="#a4c9ff"/><path d="m309.597656 207.175781c-.882812 0-1.773437-.015625-2.667968-.042969-.125-.003906-.253907-.015624-.375-.03125-2.488282-.316406-4.507813-1.191406-6-2.597656-1.195313-1.128906-1.871094-2.667968-1.898438-4.335937-.03125-1.710938.640625-3.394531 1.847656-4.617188l54.460938-55.28125 66.875-66.878906c2.0625-2.0625 5.058594-3.007813 8.214844-2.59375 2.816406.367187 5.5625 1.765625 7.738281 3.941406l2.890625 2.898438c2.175781 2.171875 3.574218 4.917969 3.945312 7.734375.414063 3.15625-.535156 6.152344-2.597656 8.214844l-61.117188 61.117187c-3.171874 3.171875-5.671874 6.851563-7.425781 10.941406-1.335937 3.113281-2.804687 6.132813-4.367187 8.972657-11.277344 20.511718-33.402344 32.558593-59.523438 32.558593zm-1.425781-8.015625c24.21875.488282 43.746094-9.859375 53.941406-28.402344 1.4375-2.613281 2.792969-5.394531 4.027344-8.273437 2.160156-5.027344 5.226563-9.550781 9.121094-13.441406l61.117187-61.117188c.414063-.417969.363282-1.203125.320313-1.523437-.136719-1.054688-.746094-2.191406-1.667969-3.113282 0 0 0 0-.003906-.003906l-2.890625-2.894531c-1.796875-1.792969-3.980469-2-4.636719-1.34375l-66.855469 66.855469zm0 0" fill="#3762cc"/></svg>