<svg id="Capa_1" enable-background="new 0 0 512 512" height="512" viewBox="0 0 512 512" width="512" xmlns="http://www.w3.org/2000/svg"><g><g><path d="m297.29 296.435c-2.113 0-4.226-.806-5.839-2.419-3.226-3.226-3.226-8.452 0-11.677l70.194-70.194c3.226-3.226 8.452-3.226 11.677 0 3.226 3.226 3.226 8.452 0 11.677l-70.194 70.194c-1.612 1.612-3.725 2.419-5.838 2.419z" fill="#c8c5c9"/></g><path d="m0 329.467v48.09c0 5.846 5.946 9.874 11.369 7.691 10.956-4.41 14.597-14.491 31.243-14.491 21.326 0 21.326 16.516 42.652 16.516 21.313 0 21.313-16.516 42.627-16.516 21.324 0 21.324 16.516 42.647 16.516 21.333 0 21.333-16.516 42.666-16.516s21.333 16.516 42.665 16.516c21.334 0 21.334-16.516 42.667-16.516 21.339 0 21.339 16.516 42.677 16.516 21.327 0 21.327-16.516 42.654-16.516 21.346 0 21.346 16.516 42.692 16.516 21.36 0 21.36-16.516 42.721-16.516 16.706 0 20.346 10.103 31.358 14.505 5.426 2.169 11.363-1.85 11.363-7.694v-48.102l-7.667-8.258h-495.334z" fill="#ff9a9f"/><path d="m512 329.467h-512v-8.258c0-4.561 3.697-8.258 8.258-8.258h495.484c4.561 0 8.258 3.697 8.258 8.258z" fill="#f4dbb3"/><path d="m144.669 173.765c-3.903-2.375-8.976-1.129-11.339 2.77-2.18 3.583-48.624 80.894-57.523 160.578-.811 7.261-3.924 13.819-8.58 19.276-1.668 1.954-3.366 4.708-5.394 6.361-9.219 7.516-10.572 20.024-7.5 33.417 2.729 11.898 8.489 16.757 20.384 19.5 16.214 3.739 31.066-.734 37.511-13.823 2.165-4.396 3.385-9.341 3.385-14.572 0-9.958-4.428-18.836-11.413-24.857-8.809-7.592-12.658-19.448-10.998-30.958 10.631-73.714 53.748-145.534 54.242-146.351 2.371-3.897 1.129-8.978-2.775-11.341z" fill="#785353"/><g><path d="m87.449 405.638c-11.895-2.743-21.542-12.413-24.271-24.311-2.121-9.246-.277-17.927 4.05-24.936-1.67 1.96-3.528 3.764-5.561 5.421-9.219 7.516-14.292 19.882-11.22 33.275 2.729 11.898 12.377 21.569 24.272 24.311 16.213 3.739 31.066-4.464 37.511-17.553-7.005 4.19-15.668 5.895-24.781 3.793z" fill="#6e4848"/></g><path d="m440.037 331.477c1.209-8.388 2.868-16.732 4.825-24.958 1.227-5.158-2.777-10.085-8.079-10.085-3.833 0-7.209 2.612-8.084 6.344-2.632 11.225-4.75 22.703-6.044 34.252-.817 7.29-3.919 13.885-8.586 19.363-1.66 1.949-4.045 5.128-6.069 6.775-9.233 7.514-11.45 18.68-8.375 32.083 2.729 11.899 9.854 18.132 21.75 20.875 16.223 3.74 31.269-1.199 37.707-14.302 2.157-4.389 3.368-9.327 3.368-14.548 0-9.958-4.428-18.836-11.413-24.856-8.799-7.583-12.657-19.446-11-30.943z" fill="#785353"/><g><path d="m434.286 405.641c-11.895-2.743-21.542-12.413-24.271-24.311-2.121-9.246-.273-17.927 4.054-24.937-1.67 1.96-3.533 3.765-5.565 5.422-9.219 7.516-14.292 19.882-11.22 33.275 2.729 11.898 12.377 21.569 24.272 24.311 16.213 3.739 31.082-4.488 37.527-17.577-7.004 4.191-15.684 5.919-24.797 3.817z" fill="#6e4848"/></g><g><path d="m407.185 189.96-17.572-17.572-29.147 29.147-10.622 22.409v3.421c0 4.561 3.697 8.258 8.258 8.258h19.937c4.38 0 8.581-1.74 11.678-4.837l17.468-17.468c6.45-6.45 6.45-16.908 0-23.358z" fill="#eceaec"/><path d="m395.507 178.281c-6.45-6.45-16.907-6.45-23.357 0l-17.468 17.468c-3.097 3.097-4.837 7.298-4.837 11.678v16.516z" fill="#dad8db"/><path d="m488.936 108.209-11.678-11.678-18.906 4.451-74.524 88.978 23.357 23.357 81.751-81.751c6.45-6.449 6.45-16.907 0-23.357z" fill="#b6b1b7"/><path d="m477.257 96.531c-6.45-6.45-16.907-6.45-23.357 0l-81.751 81.751 11.678 11.678z" fill="#ada7ae"/></g><path d="m317.956 173.765c-3.903-2.375-8.976-1.129-11.339 2.77-2.18 3.583-48.624 80.894-57.523 160.578-.811 7.261-3.924 13.819-8.58 19.276-1.668 1.954-3.366 4.708-5.394 6.361-9.219 7.516-10.572 20.024-7.5 33.417 2.729 11.898 8.489 16.757 20.384 19.5 16.214 3.739 31.066-.734 37.511-13.823 2.165-4.396 3.385-9.341 3.385-14.572 0-9.958-4.428-18.836-11.413-24.857-8.809-7.592-12.658-19.448-10.998-30.958 10.631-73.714 53.748-145.534 54.242-146.351 2.37-3.897 1.128-8.978-2.775-11.341z" fill="#785353"/><g><path d="m260.735 405.638c-11.895-2.743-21.542-12.413-24.271-24.311-2.121-9.246-.277-17.927 4.05-24.936-1.67 1.96-3.528 3.764-5.561 5.421-9.219 7.516-14.292 19.882-11.22 33.275 2.729 11.898 12.377 21.569 24.272 24.311 16.213 3.739 31.066-4.464 37.511-17.553-7.004 4.19-15.668 5.895-24.781 3.793z" fill="#6e4848"/></g></g></svg>