<svg height="511pt" viewBox="-10 1 511 511.99977" width="511pt" xmlns="http://www.w3.org/2000/svg"><path d="m490.445312 267.027344c0 135.292968-109.679687 244.972656-244.972656 244.972656-135.296875 0-244.972656-109.679688-244.972656-244.972656 0-135.292969 109.675781-244.972656 244.972656-244.972656 135.292969 0 244.972656 109.679687 244.972656 244.972656zm0 0" fill="#2d4cad"/><path d="m245.472656 512c45.390625 0 87.886719-12.359375 124.332032-33.875-1.84375-.570312-3.703126-1.136719-5.601563-1.679688-4.957031-1.421874-9.277344-4.6875-12.027344-9.28125-6.066406-10.136718-15.5625-32.757812-16.96875-64.027343-10.070312 12.789062-20.984375 23.214843-31.320312 31.242187-16.839844 13.078125-37.621094 20.179688-59.023438 20.179688-21.402343 0-42.1875-7.101563-59.023437-20.179688-9.933594-7.710937-20.394532-17.632812-30.128906-29.734375-1.640626 30.429688-10.929688 52.546875-16.898438 62.519531-2.75 4.59375-7.070312 7.859376-12.03125 9.28125-1.90625.546876-3.773438 1.117188-5.628906 1.691407 36.445312 21.507812 78.9375 33.863281 124.320312 33.863281zm0 0" fill="#f9bd91"/><path d="m257.851562 453.664062c-42.8125 5.8125-75.488281-15.878906-102.140624-49.019531-1.109376 20.546875-9.175782 66.136719-28.929688 71.800781-1.90625.546876-3.773438 1.113282-5.628906 1.6875 38.125 22.5 82.425781 34.738282 129.222656 33.8125-16.558594-17.433593-12.894531-45.597656 7.476562-58.28125zm0 0" fill="#f4ad7d"/><path d="m109.109375 218.78125-.003906.003906zm0 0" fill="#633"/><path d="m122.164062 80.109375c-.007812 3.746094-2.082031 7.21875-5.453124 8.859375-44.675782 21.734375-20.589844 126.484375-20.589844 126.484375 4.488281.300781 9.183594 2.117187 12.6875 3.8125.859375-5.335937 2.257812-10.59375 4.234375-15.671875 1.507812-3.871094 3.390625-7.78125 5.746093-11.476562 4.085938-6.410157 5.949219-13.96875 5.390626-21.53125-1.605469-21.851563-.832032-64.914063 28.015624-77.890626 24.4375-10.996093 54.414063-4.628906 73.527344 1.726563 12.414063 4.128906 25.863282 4.128906 38.277344 0 19.117188-6.355469 49.09375-12.722656 73.53125-1.726563 28.761719 12.941407 29.613281 55.792969 28.027344 77.703126-.550782 7.621093 1.257812 15.261718 5.375 21.71875 2.433594 3.8125 4.359375 7.859374 5.890625 11.851562 1.902343 4.960938 3.257812 10.089844 4.09375 15.296875 4.414062-2.136719 10.726562-4.46875 16.125-3.703125.660156-22.90625 2.773437-47.597656 2.773437-47.597656 40.703125-199.367188-277.386718-211.457032-277.652344-87.855469zm0 0" fill="#633"/><path d="m211.652344 2.519531c-81.574219 12.792969-89.449219 60.050781-89.488282 77.589844-.007812 3.746094-2.082031 7.21875-5.453124 8.859375-44.675782 21.734375-20.589844 126.484375-20.589844 126.484375 4.488281.300781 9.183594 2.117187 12.6875 3.8125.855468-5.335937 2.257812-10.59375 4.234375-15.671875 1.503906-3.871094 3.390625-7.78125 5.746093-11.476562 4.085938-6.410157 5.945313-13.96875 5.390626-21.53125-1.605469-21.851563-.832032-64.914063 28.011718-77.890626 17.535156-7.890624 37.917969-6.839843 55.101563-3.269531-28.007813-23.148437-25.808594-66.671875 4.359375-86.90625zm0 0" fill="#542727"/><path d="m405.261719 217.105469c-6.6875-6.132813-20.015625-3.023438-25.777344.730469 1.265625 7.859374 1.335937 15.902343.246094 23.84375l-6.800781 49.515624c0 3.992188-.125 7.910157-.355469 11.757813 16.578125 5 24.816406-9.882813 26.203125-20.097656.59375-4.398438 1.574218-8.730469 2.925781-12.960938 4.410156-13.769531 20.320313-37.429687 3.558594-52.789062zm0 0" fill="#f9bd91"/><path d="m84.460938 217.105469c6.691406-6.132813 20.015624-3.023438 25.777343.730469-1.261719 7.859374-1.335937 15.902343-.246093 23.84375l6.800781 49.515624c0 3.992188.125 7.910157.355469 11.757813-16.578126 5-24.8125-9.882813-26.199219-20.097656-.597657-4.398438-1.574219-8.730469-2.929688-12.960938-4.410156-13.769531-20.320312-37.429687-3.558593-52.789062zm0 0" fill="#f9bd91"/><path d="m376.824219 203.96875c-1.53125-3.992188-3.460938-8.039062-5.890625-11.851562-4.117188-6.457032-5.929688-14.097657-5.375-21.71875 1.585937-21.910157.734375-64.761719-28.027344-77.703126-24.4375-10.996093-54.410156-4.628906-73.527344 1.726563-12.414062 4.128906-25.871094 4.128906-38.285156 0-19.113281-6.355469-49.089844-12.722656-73.523438-1.726563-28.847656 12.976563-29.621093 56.039063-28.015624 77.894532.554687 7.558594-1.304688 15.121094-5.390626 21.53125-2.355468 3.691406-4.238281 7.601562-5.746093 11.472656-4.886719 12.554688-6.3125 26.171875-4.480469 39.503906l6.800781 49.53125c0 71.207032 38.011719 119.605469 70.34375 144.714844 16.878907 13.105469 37.707031 20.226562 59.15625 20.226562s42.277344-7.117187 59.152344-20.226562c32.335937-25.105469 70.347656-73.507812 70.347656-144.714844l6.796875-49.519531c1.8125-13.203125.4375-26.683594-4.335937-39.140625zm0 0" fill="#fcd2ae"/><path d="m392.671875 263.957031c-6.152344 0-11.589844-3.015625-14.953125-7.636719l-4.789062 34.875c0 3.992188-.125 7.910157-.355469 11.757813 16.578125 5 24.8125-9.882813 26.199219-20.097656.597656-4.398438 1.574218-8.730469 2.929687-12.960938 1.140625-3.5625 3.050781-7.789062 4.96875-12.363281-3.394531 3.929688-8.402344 6.425781-14 6.425781zm0 0" fill="#f4ad7d"/><path d="m97.050781 263.957031c6.152344 0 11.589844-3.015625 14.953125-7.636719l4.789063 34.875c0 3.992188.125 7.910157.355469 11.757813-16.578126 5-24.8125-9.882813-26.199219-20.097656-.597657-4.398438-1.574219-8.730469-2.929688-12.960938-1.140625-3.5625-3.050781-7.789062-4.96875-12.363281 3.394531 3.929688 8.402344 6.425781 14 6.425781zm0 0" fill="#f4ad7d"/><path d="m226.367188 437.34375c-25.632813-25.109375-55.769532-73.507812-55.769532-144.714844l-5.390625-49.53125c-2.160156-19.832031 1.707031-38.316406 8.105469-50.980468 3.242188-6.410157 4.714844-13.972657 4.277344-21.53125-1.273438-21.851563-.660156-64.914063 22.207031-77.890626 2.386719-1.355468 4.835937-2.441406 7.332031-3.304687-17.144531-3.542969-37.457031-4.5625-54.9375 3.304687-28.84375 12.976563-29.617187 56.039063-28.011718 77.890626.554687 7.558593-1.304688 15.121093-5.390626 21.53125-8.179687 12.835937-12.921874 31.347656-10.226562 50.980468l6.800781 49.53125c0 71.207032 38.011719 119.605469 70.34375 144.714844 21.195313 16.460938 48.410157 23.328125 74.996094 18.917969-12.464844-2.605469-24.285156-9.074219-34.335937-18.917969zm0 0" fill="#f9bd91"/><path d="m291.253906 241.558594c0-2.332032.4375-4.550782 1.214844-6.566406-3.027344 1.488281-5.476562 3.171874-7.21875 4.59375-4.0625 3.3125-11.128906 7.515624-14.996094 9.738281-.734375.417969-.433594 1.535156.410156 1.535156h.382813c3.589844 0 7.160156.5625 10.570313 1.683594 5.910156 1.949219 11.570312 2.917969 16.804687 3.234375-4.300781-2.945313-7.167969-8.210938-7.167969-14.21875zm0 0" fill="#edeef2"/><path d="m339.375 245.203125c-7.066406-6.628906-13.859375-10.453125-20.140625-12.390625 1.414063 2.546875 2.230469 5.539062 2.230469 8.746094 0 5.238281-2.179688 9.910156-5.585938 12.976562 5.144532-1.0625 9.15625-2.542968 11.644532-3.671875 5.097656-2.324219 8.953124-3.265625 11.246093-3.652343.953125-.160157 1.308594-1.347657.605469-2.007813zm0 0" fill="#edeef2"/><path d="m291.519531 235.476562c-.859375 1.964844-1.339843 4.136719-1.339843 6.425782 0 5.914062 3.203124 11.078125 7.964843 13.859375 6.871094.449219 13.015625-.226563 18.054688-1.292969 3.699219-2.9375 6.074219-7.472656 6.074219-12.566406 0-3.335938-1.019532-6.4375-2.761719-9.003906-11.511719-3.640626-21.324219-.921876-27.992188 2.578124zm0 0" fill="#633"/><path d="m312.210938 242.910156c0 3.394532-2.753907 6.148438-6.152344 6.148438-3.394532 0-6.148438-2.753906-6.148438-6.148438 0-3.398437 2.753906-6.152344 6.148438-6.152344 3.398437 0 6.152344 2.753907 6.152344 6.152344zm0 0" fill="#542727"/><path d="m352.96875 222.421875c-.921875-6.042969-4.582031-20.085937-18.871094-23.332031-14.425781-3.277344-44.847656 2.902344-57.164062 5.6875-3.277344.742187-5.878906 3.238281-6.761719 6.484375l-2.535156 9.355469c-.214844.792968.515625 1.519531 1.308593 1.296874 9.335938-2.617187 52.332032-14.246093 65.429688-10.042968 9.988281 3.203125 15.121094 8.195312 17.386719 11.074218.433593.550782 1.308593.167969 1.207031-.523437zm0 0" fill="#633"/><path d="m201.742188 241.558594c0-2.332032-.433594-4.550782-1.214844-6.566406 3.03125 1.488281 5.476562 3.171874 7.21875 4.59375 4.0625 3.3125 11.128906 7.515624 15 9.738281.730468.417969.429687 1.535156-.414063 1.535156h-.378906c-3.589844 0-7.160156.5625-10.570313 1.683594-5.914062 1.949219-11.574218 2.917969-16.804687 3.234375 4.300781-2.945313 7.164063-8.210938 7.164063-14.21875zm0 0" fill="#edeef2"/><path d="m153.625 245.203125c7.0625-6.628906 13.855469-10.453125 20.136719-12.390625-1.410157 2.546875-2.230469 5.539062-2.230469 8.746094 0 5.238281 2.183594 9.910156 5.585938 12.976562-5.140626-1.0625-9.15625-2.542968-11.640626-3.671875-5.097656-2.324219-8.953124-3.265625-11.246093-3.652343-.957031-.160157-1.3125-1.347657-.605469-2.007813zm0 0" fill="#edeef2"/><path d="m201.476562 235.476562c.863282 1.964844 1.34375 4.136719 1.34375 6.425782 0 5.914062-3.203124 11.078125-7.96875 13.859375-6.871093.449219-13.015624-.226563-18.050781-1.292969-3.699219-2.9375-6.074219-7.472656-6.074219-12.566406 0-3.335938 1.019532-6.4375 2.761719-9.003906 11.507813-3.640626 21.320313-.921876 27.988281 2.578124zm0 0" fill="#633"/><path d="m193.089844 242.910156c0 3.394532-2.753906 6.148438-6.152344 6.148438-3.394531 0-6.148438-2.753906-6.148438-6.148438 0-3.398437 2.753907-6.152344 6.148438-6.152344 3.398438 0 6.152344 2.753907 6.152344 6.152344zm0 0" fill="#542727"/><path d="m140.03125 222.421875c.917969-6.042969 4.578125-20.085937 18.867188-23.332031 14.425781-3.277344 44.847656 2.902344 57.164062 5.6875 3.28125.742187 5.882812 3.238281 6.761719 6.484375l2.539062 9.355469c.214844.792968-.515625 1.519531-1.308593 1.296874-9.335938-2.617187-52.335938-14.246093-65.433594-10.042968-9.988282 3.203125-15.117188 8.195312-17.382813 11.074218-.433593.550782-1.3125.167969-1.207031-.523437zm0 0" fill="#633"/><g fill="#f9bd91"><path d="m223.359375 315.144531 5.632813-1.1875c10.460937 10.335938 27.84375 10.316407 38.289062 0l5.632812 1.1875c4.046876.847657 8.027344-1.738281 8.882813-5.792969.851563-4.054687-1.742187-8.03125-5.792969-8.882812l-10.105468-2.128906c-3.289063-.691406-6.496094.628906-8.050782 3.605468-4.085937 6.320313-15.328125 6.328126-19.421875 0-1.550781-2.976562-4.761719-4.292968-8.050781-3.605468l-10.101562 2.128906c-4.054688.851562-6.648438 4.828125-5.796876 8.882812.855469 4.050782 4.832032 6.640626 8.882813 5.792969zm0 0"/><path d="m282.539062 357.652344-13.734374-5.414063c-1.542969-.609375-3.25-.679687-4.839844-.199219l-15.828125 4.773438-15.828125-4.773438c-1.589844-.480468-3.296875-.410156-4.839844.199219l-13.734375 5.414063c-3.792969 1.496094-5.660156 5.785156-4.160156 9.582031 1.492187 3.78125 5.769531 5.660156 9.578125 4.160156l11.347656-4.476562 15.4375 4.65625c1.496094.464843 3.054688.433593 4.402344 0l15.433594-4.65625 11.347656 4.476562c3.789062 1.492188 8.078125-.359375 9.582031-4.160156 1.496094-3.796875-.371094-8.085937-4.164063-9.582031zm0 0"/><path d="m253.320312 383.726562h-9.476562c-4.082031 0-7.386719 3.304688-7.386719 7.382813 0 4.082031 3.304688 7.386719 7.386719 7.386719h9.476562c4.082032 0 7.386719-3.304688 7.386719-7.386719 0-4.078125-3.308593-7.382813-7.386719-7.382813zm0 0"/></g><path d="m300.925781 200.207031c-9.570312 1.445313-18.546875 3.339844-23.988281 4.570313-3.28125.742187-5.882812 3.238281-6.765625 6.484375l-2.535156 9.355469c-.214844.792968.515625 1.519531 1.308593 1.296874 5.175782-1.453124 20.699219-5.671874 35.738282-8.429687-6.183594-1.191406-8.449219-8.960937-3.757813-13.277344zm0 0" fill="#542727"/><path d="m183.332031 199.050781c-9.289062-1.035156-18.304687-1.355469-24.433593.039063-14.289063 3.246094-17.949219 17.289062-18.867188 23.332031-.105469.6875.773438 1.074219 1.203125.527344 2.269531-2.882813 7.398437-7.875 17.386719-11.078125 4.984375-1.597656 14.304687-.902344 24.445312.714844-5.277344-3.0625-5.105468-10.699219.265625-13.535157zm0 0" fill="#542727"/><path d="m360.058594 260.53125c3.449218.101562 6.273437-2.664062 6.273437-6.085938v-60.335937c0-3.355469-2.71875-6.078125-6.074219-6.085937-3.367187-.007813-6.101562 2.71875-6.101562 6.085937v60.082031c0 3.335938 2.570312 6.242188 5.902344 6.339844zm0 0" fill="#d7dff7"/><path d="m360.195312 234.261719c-2.910156-.089844-5.273437-2.175781-6.039062-4.882813v24.8125c0 3.332032 2.570312 6.242188 5.902344 6.339844 3.449218.101562 6.273437-2.664062 6.273437-6.085938v-24.050781c-1.035156 2.335938-3.402343 3.945313-6.136719 3.867188zm0 0" fill="#bbc7f9"/><path d="m374.574219 276.613281-.515625-14.664062c0-5.40625-4.382813-9.792969-9.792969-9.792969h-8.820313c-5.40625 0-9.792968 4.382812-9.792968 9.792969l-.023438 15.320312zm0 0" fill="#5e73dd"/><path d="m360.125 261.953125c0-4.429687 2.9375-8.164063 6.964844-9.378906-.894532-.269531-1.84375-.417969-2.824219-.417969h-8.820313c-5.410156 0-9.792968 4.386719-9.792968 9.796875l-.023438 15.320313 14.472656-.332032zm0 0" fill="#4660c5"/><path d="m334.902344 285.964844c0 7.414062 6.011718 13.425781 13.429687 13.425781h23.046875c7.417969 0 13.429688-6.011719 13.429688-13.425781 0-7.417969-6.011719-13.429688-13.429688-13.429688h-23.046875c-7.417969 0-13.429687 6.011719-13.429687 13.429688zm0 0" fill="#58d5f3"/><path d="m371.207031 299.390625c-7.417969 0-13.429687-6.011719-13.429687-13.425781 0-7.417969 6.011718-13.429688 13.429687-13.429688h-22.875c-7.417969 0-13.425781 6.011719-13.425781 13.429688 0 7.414062 6.011719 13.425781 13.425781 13.425781h23.046875.003906zm0 0" fill="#05bbe7"/><path d="m330.960938 383.125h57.792968v43.445312h-57.792968zm0 0" fill="#bbc7f9"/><path d="m330.960938 383.125h28.894531v43.445312h-28.894531zm0 0" fill="#8d9deb"/><path d="m385.285156 294.449219h-50.859375c-1.914062 0-3.464843 1.550781-3.464843 3.46875v85.207031h57.792968v-85.207031c0-1.914063-1.550781-3.46875-3.46875-3.46875zm0 0" fill="#abf0ff"/><path d="m363.324219 294.449219h-28.898438c-1.914062 0-3.464843 1.550781-3.464843 3.46875v85.207031h28.894531v-85.207031c0-1.914063 1.554687-3.46875 3.46875-3.46875zm0 0" fill="#58d5f3"/><path d="m330.957031 379.898438h57.796875v21.914062h-57.796875zm0 0" fill="#5e73dd"/><path d="m330.957031 379.898438h28.898438v21.914062h-28.898438zm0 0" fill="#4660c5"/><path d="m345.652344 401.8125h28.40625v24.757812h-28.40625zm0 0" fill="#8d9deb"/><path d="m345.652344 401.8125h14.203125v24.757812h-14.203125zm0 0" fill="#5e73dd"/><path d="m313.664062 426.570312h92.382813c6.050781 0 10.957031 4.902344 10.957031 10.957032 0 6.050781-4.90625 10.957031-10.957031 10.957031h-92.382813c-6.050781 0-10.957031-4.90625-10.957031-10.957031 0-6.050782 4.90625-10.957032 10.957031-10.957032zm0 0" fill="#d7dff7"/><path d="m348.035156 437.527344c0-5.328125 3.695313-9.777344 8.660156-10.957032h-43.03125c-6.050781 0-10.957031 4.902344-10.957031 10.957032 0 6.050781 4.90625 10.957031 10.957031 10.957031h43.03125c-4.964843-1.179687-8.660156-5.632813-8.660156-10.957031zm0 0" fill="#bbc7f9"/><path d="m395.113281 448.484375h-70.515625v27.117187c0 1.765626 1.433594 3.199219 3.199219 3.199219h40.871094c9.214843-5.375 18.046875-11.332031 26.445312-17.820312zm0 0" fill="#bbc7f9"/><path d="m359.855469 448.484375h-35.257813v27.117187c0 1.765626 1.429688 3.199219 3.195313 3.199219h32.0625zm0 0" fill="#8d9deb"/><path d="m345.652344 490.636719c9.832031-4.410157 19.316406-9.457031 28.410156-15.078125v-27.074219h-28.410156zm0 0" fill="#bbc7f9"/><path d="m359.855469 448.484375h-14.203125v42.152344c4.820312-2.160157 9.554687-4.480469 14.203125-6.941407zm0 0" fill="#8d9deb"/><path d="m374.058594 448.484375h-28.40625v30.316406h23.011718c1.8125-1.058593 3.613282-2.140625 5.394532-3.242187zm0 0" fill="#8d9deb"/><path d="m345.652344 448.484375h14.203125v30.316406h-14.203125zm0 0" fill="#5e73dd"/><path d="m452.261719 188.246094c-17.347657 6.902344-28.734375 23.683594-28.734375 42.355468v66.6875c0 1.101563.894531 2 2 2 6.394531 0 11.574218 5.179688 11.574218 11.574219v15.320313c.625-.714844 1.3125-1.378906 2.0625-1.980469l15.695313-12.550781c.523437-.421875 1.109375-.648438 1.695313-.722656v-119.769532c0-2.214844-2.234376-3.730468-4.292969-2.914062zm0 0" fill="#bbc7f9"/><path d="m423.527344 230.601562v66.6875c0 1.105469.894531 2 2 2 6.394531 0 11.574218 5.183594 11.574218 11.574219v-112.707031c-8.511718 8.398438-13.574218 20-13.574218 32.445312zm0 0" fill="#d7dff7"/><path d="m423.527344 277.042969v20.246093c0 1.105469.894531 2 2 2 6.394531 0 11.574218 5.183594 11.574218 11.574219v15.320313c1.679688-1.921875 1.722657-1.601563 17.753907-14.53125.527343-.421875 1.113281-.648438 1.699219-.722656 0-11.675782 0-22.085938 0-33.886719-6.757813 13.648437-26.226563 13.726562-33.027344 0zm0 0" fill="#7f93e6"/><path d="m423.527344 277.042969v20.246093c0 1.105469.894531 2 2 2 6.394531 0 11.574218 5.183594 11.574218 11.574219v-23.792969c-5.511718-.867187-10.6875-4.195312-13.574218-10.027343zm0 0" fill="#bbc7f9"/><path d="m465.640625 374.535156v-.300781c0-3.273437-.824219-6.355469-2.273437-9.046875-2.230469-4.148438-3.242188-8.84375-3.242188-13.554688v-38.292968c0-2.851563-3.300781-4.4375-5.527344-2.65625l-15.691406 12.554687c-3.808594 3.042969-6.023438 7.65625-6.023438 12.527344v15.804687c0 4.824219-1.011718 9.636719-3.25 13.910157-1.449218 2.765625-2.265624 5.910156-2.265624 9.214843v56.414063c15.246093-16.890625 28.167968-35.917969 38.273437-56.574219zm0 0" fill="#5e73dd"/><path d="m442.039062 375.828125c0-4.199219.699219-8.199219 1.929688-11.71875 1.90625-5.433594 2.765625-11.550781 2.765625-17.6875v-20.097656c0-4 .792969-7.851563 2.21875-11.125l-10.046875 8.035156c-3.808594 3.046875-6.023438 7.65625-6.023438 12.53125v15.804687c0 4.824219-1.011718 9.636719-3.25 13.910157-1.449218 2.765625-2.265624 5.910156-2.265624 9.214843v56.414063c5.164062-5.726563 10.058593-11.699219 14.675781-17.894531v-37.386719zm0 0" fill="#4660c5"/></svg>